<?xml version="1.0" encoding="UTF-8" standalone="no"?>
<!-- Created with Inkscape (http://www.inkscape.org/) -->

<svg
   xmlns:dc="http://purl.org/dc/elements/1.1/"
   xmlns:cc="http://creativecommons.org/ns#"
   xmlns:rdf="http://www.w3.org/1999/02/22-rdf-syntax-ns#"
   xmlns:svg="http://www.w3.org/2000/svg"
   xmlns="http://www.w3.org/2000/svg"
   xmlns:sodipodi="http://sodipodi.sourceforge.net/DTD/sodipodi-0.dtd"
   xmlns:inkscape="http://www.inkscape.org/namespaces/inkscape"
   width="744.09448819"
   height="1052.3622047"
   id="svg4422"
   version="1.1"
   inkscape:version="0.48.3.1 r9886"
   sodipodi:docname="New document 12">
  <defs
     id="defs4424" />
  <sodipodi:namedview
     id="base"
     pagecolor="#ffffff"
     bordercolor="#666666"
     borderopacity="1.0"
     inkscape:pageopacity="0.0"
     inkscape:pageshadow="2"
     inkscape:zoom="0.35"
     inkscape:cx="375"
     inkscape:cy="520"
     inkscape:document-units="px"
     inkscape:current-layer="layer1"
     showgrid="false"
     inkscape:window-width="1166"
     inkscape:window-height="913"
     inkscape:window-x="3"
     inkscape:window-y="22"
     inkscape:window-maximized="0" />
  <metadata
     id="metadata4427">
    <rdf:RDF>
      <cc:Work
         rdf:about="">
        <dc:format>image/svg+xml</dc:format>
        <dc:type
           rdf:resource="http://purl.org/dc/dcmitype/StillImage" />
        <dc:title></dc:title>
      </cc:Work>
    </rdf:RDF>
  </metadata>
  <g
     inkscape:label="Layer 1"
     inkscape:groupmode="layer"
     id="layer1">
    <g
       transform="matrix(0.61591806,0,0,0.61591806,-772.07035,-304.04298)"
       style="opacity:0.7"
       id="g17">
      <path
         style="fill:#7f007f"
         inkscape:connector-curvature="0"
         d="m 1410,675 c -13.2,0 -24,-10.8 -24,-24 v -6 c 0,-13.2 10.6,-26.068 23.556,-28.597 l 321.889,-62.807 c 12.956,-2.528 34.155,-2.528 47.111,0 l 321.889,62.807 C 2113.4,618.932 2124,631.8 2124,645 v 6 c 0,13.2 -10.8,24 -24,24 h -690 z"
         id="path19" />
      <path
         style="fill:none;stroke:#000000;stroke-width:0.5;stroke-miterlimit:10"
         inkscape:connector-curvature="0"
         stroke-miterlimit="10"
         d="m 1410,675 c -13.2,0 -24,-10.8 -24,-24 v -6 c 0,-13.2 10.6,-26.068 23.556,-28.597 l 321.889,-62.807 c 12.956,-2.528 34.155,-2.528 47.111,0 l 321.889,62.807 C 2113.4,618.932 2124,631.8 2124,645 v 6 c 0,13.2 -10.8,24 -24,24 h -690 z"
         id="path21" />
    </g>
    <g
       transform="matrix(0.61591806,0,0,0.61591806,-772.07035,-304.04298)"
       style="opacity:0.7"
       id="g23">
      <path
         style="fill:#295f99"
         inkscape:connector-curvature="0"
         d="m 1527,819 c -13.2,0 -24,-10.8 -24,-24 v -78 c 0,-13.2 7.637,-31.637 16.971,-40.971 l 47.059,-47.059 c 9.334,-9.334 24.607,-9.334 33.941,0 l 47.059,47.059 C 1657.363,685.363 1665,703.8 1665,717 v 78 c 0,13.2 -10.8,24 -24,24 h -114 z"
         id="path25" />
      <path
         style="fill:none;stroke:#000000;stroke-width:0.5;stroke-miterlimit:10"
         inkscape:connector-curvature="0"
         stroke-miterlimit="10"
         d="m 1527,819 c -13.2,0 -24,-10.8 -24,-24 v -78 c 0,-13.2 7.637,-31.637 16.971,-40.971 l 47.059,-47.059 c 9.334,-9.334 24.607,-9.334 33.941,0 l 47.059,47.059 C 1657.363,685.363 1665,703.8 1665,717 v 78 c 0,13.2 -10.8,24 -24,24 h -114 z"
         id="path27" />
    </g>
    <g
       transform="matrix(0.61591806,0,0,0.61591806,-772.07035,-304.04298)"
       style="opacity:0.7"
       id="g29">
      <path
         style="fill:#fd0900"
         inkscape:connector-curvature="0"
         d="m 1356,819 c -13.2,0 -24,-10.8 -24,-24 v -78 c 0,-13.2 7.637,-31.637 16.971,-40.971 l 47.059,-47.059 c 9.334,-9.334 24.607,-9.334 33.941,0 l 47.059,47.059 C 1486.363,685.363 1494,703.8 1494,717 v 78 c 0,13.2 -10.8,24 -24,24 h -114 z"
         id="path31" />
      <path
         style="fill:none;stroke:#000000;stroke-width:0.5;stroke-miterlimit:10"
         inkscape:connector-curvature="0"
         stroke-miterlimit="10"
         d="m 1356,819 c -13.2,0 -24,-10.8 -24,-24 v -78 c 0,-13.2 7.637,-31.637 16.971,-40.971 l 47.059,-47.059 c 9.334,-9.334 24.607,-9.334 33.941,0 l 47.059,47.059 C 1486.363,685.363 1494,703.8 1494,717 v 78 c 0,13.2 -10.8,24 -24,24 h -114 z"
         id="path33" />
    </g>
    <g
       transform="matrix(0.61591806,0,0,0.61591806,-772.07035,-304.04298)"
       style="opacity:0.7"
       id="g35">
      <path
         style="fill:#7fd21b"
         inkscape:connector-curvature="0"
         d="m 1698,819 c -13.2,0 -24,-10.8 -24,-24 v -78 c 0,-13.2 7.637,-31.637 16.971,-40.971 l 47.059,-47.059 c 9.334,-9.334 24.607,-9.334 33.941,0 l 47.059,47.059 C 1828.363,685.363 1836,703.8 1836,717 v 78 c 0,13.2 -10.8,24 -24,24 h -114 z"
         id="path37" />
      <path
         style="fill:none;stroke:#000000;stroke-width:0.5;stroke-miterlimit:10"
         inkscape:connector-curvature="0"
         stroke-miterlimit="10"
         d="m 1698,819 c -13.2,0 -24,-10.8 -24,-24 v -78 c 0,-13.2 7.637,-31.637 16.971,-40.971 l 47.059,-47.059 c 9.334,-9.334 24.607,-9.334 33.941,0 l 47.059,47.059 C 1828.363,685.363 1836,703.8 1836,717 v 78 c 0,13.2 -10.8,24 -24,24 h -114 z"
         id="path39" />
    </g>
    <g
       transform="matrix(0.61591806,0,0,0.61591806,-772.07035,-304.04298)"
       style="opacity:0.7"
       id="g41">
      <path
         style="fill:#ffff00"
         inkscape:connector-curvature="0"
         d="m 1869,819 c -13.2,0 -24,-10.8 -24,-24 v -78 c 0,-13.2 7.637,-31.637 16.971,-40.971 l 47.059,-47.059 c 9.334,-9.334 24.607,-9.334 33.941,0 l 47.059,47.059 C 1999.363,685.363 2007,703.8 2007,717 v 78 c 0,13.2 -10.8,24 -24,24 h -114 z"
         id="path43" />
      <path
         style="fill:none;stroke:#000000;stroke-width:0.5;stroke-miterlimit:10"
         inkscape:connector-curvature="0"
         stroke-miterlimit="10"
         d="m 1869,819 c -13.2,0 -24,-10.8 -24,-24 v -78 c 0,-13.2 7.637,-31.637 16.971,-40.971 l 47.059,-47.059 c 9.334,-9.334 24.607,-9.334 33.941,0 l 47.059,47.059 C 1999.363,685.363 2007,703.8 2007,717 v 78 c 0,13.2 -10.8,24 -24,24 h -114 z"
         id="path45" />
    </g>
    <g
       transform="matrix(0.61591806,0,0,0.61591806,-772.07035,-304.04298)"
       style="opacity:0.7"
       id="g47">
      <path
         style="fill:#fe7f00"
         inkscape:connector-curvature="0"
         d="m 2040,819 c -13.2,0 -24,-10.8 -24,-24 v -78 c 0,-13.2 7.637,-31.637 16.971,-40.971 l 47.059,-47.059 c 9.334,-9.334 24.607,-9.334 33.941,0 l 47.059,47.059 C 2170.363,685.363 2178,703.8 2178,717 v 78 c 0,13.2 -10.8,24 -24,24 h -114 z"
         id="path49" />
      <path
         style="fill:none;stroke:#000000;stroke-width:0.5;stroke-miterlimit:10"
         inkscape:connector-curvature="0"
         stroke-miterlimit="10"
         d="m 2040,819 c -13.2,0 -24,-10.8 -24,-24 v -78 c 0,-13.2 7.637,-31.637 16.971,-40.971 l 47.059,-47.059 c 9.334,-9.334 24.607,-9.334 33.941,0 l 47.059,47.059 C 2170.363,685.363 2178,703.8 2178,717 v 78 c 0,13.2 -10.8,24 -24,24 h -114 z"
         id="path51" />
    </g>
    <line
       style="fill:none;stroke:#000000;stroke-width:0.61591804;stroke-miterlimit:10"
       stroke-miterlimit="10"
       x1="308.86588"
       y1="50.725811"
       x2="98.221909"
       y2="95.071945"
       id="line53" />
    <line
       style="fill:none;stroke:#000000;stroke-width:0.61591804;stroke-miterlimit:10"
       stroke-miterlimit="10"
       x1="98.221909"
       y1="95.071945"
       x2="64.962326"
       y2="139.41801"
       id="line55" />
    <line
       style="fill:none;stroke:#000000;stroke-width:0.61591804;stroke-miterlimit:10"
       stroke-miterlimit="10"
       x1="98.221909"
       y1="95.071945"
       x2="98.221909"
       y2="139.41801"
       id="line57" />
    <line
       style="fill:none;stroke:#000000;stroke-width:0.61591804;stroke-miterlimit:10"
       stroke-miterlimit="10"
       x1="98.221909"
       y1="95.071945"
       x2="131.48146"
       y2="139.41801"
       id="line59" />
    <line
       style="fill:none;stroke:#000000;stroke-width:0.61591804;stroke-miterlimit:10"
       stroke-miterlimit="10"
       x1="64.962326"
       y1="139.41801"
       x2="64.962326"
       y2="183.76414"
       id="line61" />
    <line
       style="fill:none;stroke:#000000;stroke-width:0.61591804;stroke-miterlimit:10"
       stroke-miterlimit="10"
       x1="64.962326"
       y1="139.41801"
       x2="98.221909"
       y2="183.76414"
       id="line63" />
    <line
       style="fill:none;stroke:#000000;stroke-width:0.61591804;stroke-miterlimit:10"
       stroke-miterlimit="10"
       x1="325.49564"
       y1="139.41801"
       x2="308.86588"
       y2="183.76414"
       id="line65" />
    <line
       style="fill:none;stroke:#000000;stroke-width:0.61591804;stroke-miterlimit:10"
       stroke-miterlimit="10"
       x1="325.49564"
       y1="139.41801"
       x2="342.12546"
       y2="183.76414"
       id="line67" />
    <line
       style="fill:none;stroke:#000000;stroke-width:0.61591804;stroke-miterlimit:10"
       stroke-miterlimit="10"
       x1="308.86588"
       y1="50.725811"
       x2="203.5439"
       y2="95.071945"
       id="line69" />
    <line
       style="fill:none;stroke:#000000;stroke-width:0.61591804;stroke-miterlimit:10"
       stroke-miterlimit="10"
       x1="203.5439"
       y1="95.071945"
       x2="170.28432"
       y2="139.41801"
       id="line71" />
    <line
       style="fill:none;stroke:#000000;stroke-width:0.61591804;stroke-miterlimit:10"
       stroke-miterlimit="10"
       x1="203.5439"
       y1="95.071945"
       x2="203.5439"
       y2="139.41801"
       id="line73" />
    <line
       style="fill:none;stroke:#000000;stroke-width:0.61591804;stroke-miterlimit:10"
       stroke-miterlimit="10"
       x1="203.5439"
       y1="95.071945"
       x2="236.80345"
       y2="139.41801"
       id="line75" />
    <line
       style="fill:none;stroke:#000000;stroke-width:0.61591804;stroke-miterlimit:10"
       stroke-miterlimit="10"
       x1="170.28432"
       y1="139.41801"
       x2="170.28432"
       y2="183.76414"
       id="line77" />
    <line
       style="fill:none;stroke:#000000;stroke-width:0.61591804;stroke-miterlimit:10"
       stroke-miterlimit="10"
       x1="203.5439"
       y1="139.41801"
       x2="203.5439"
       y2="183.76414"
       id="line79" />
    <line
       style="fill:none;stroke:#000000;stroke-width:0.61591804;stroke-miterlimit:10"
       stroke-miterlimit="10"
       x1="308.86588"
       y1="50.725811"
       x2="414.18784"
       y2="95.071945"
       id="line81" />
    <line
       style="fill:none;stroke:#000000;stroke-width:0.61591804;stroke-miterlimit:10"
       stroke-miterlimit="10"
       x1="414.18784"
       y1="95.071945"
       x2="380.92831"
       y2="139.41801"
       id="line83" />
    <line
       style="fill:none;stroke:#000000;stroke-width:0.61591804;stroke-miterlimit:10"
       stroke-miterlimit="10"
       x1="414.18784"
       y1="95.071945"
       x2="414.18784"
       y2="139.41801"
       id="line85" />
    <line
       style="fill:none;stroke:#000000;stroke-width:0.61591804;stroke-miterlimit:10"
       stroke-miterlimit="10"
       x1="414.18784"
       y1="95.071945"
       x2="447.44742"
       y2="139.41801"
       id="line87" />
    <line
       style="fill:none;stroke:#000000;stroke-width:0.61591804;stroke-miterlimit:10"
       stroke-miterlimit="10"
       x1="380.92831"
       y1="139.41801"
       x2="380.92831"
       y2="183.76414"
       id="line89" />
    <line
       stroke-miterlimit="10"
       x1="414.18784"
       y1="139.41801"
       x2="414.18784"
       y2="183.76414"
       id="line91"
       style="fill:none;stroke:#000000;stroke-width:0.61591804;stroke-miterlimit:10" />
    <line
       style="fill:none;stroke:#000000;stroke-width:0.61591804;stroke-miterlimit:10"
       stroke-miterlimit="10"
       x1="308.86588"
       y1="50.725811"
       x2="308.86588"
       y2="95.071945"
       id="line93" />
    <line
       style="fill:none;stroke:#000000;stroke-width:0.61591804;stroke-miterlimit:10"
       stroke-miterlimit="10"
       x1="308.86588"
       y1="95.071945"
       x2="275.60629"
       y2="139.41801"
       id="line95" />
    <line
       style="fill:none;stroke:#000000;stroke-width:0.61591804;stroke-miterlimit:10"
       stroke-miterlimit="10"
       x1="308.86588"
       y1="95.071945"
       x2="325.49564"
       y2="139.41801"
       id="line97" />
    <line
       style="fill:none;stroke:#000000;stroke-width:0.61591804;stroke-miterlimit:10"
       stroke-miterlimit="10"
       x1="275.60629"
       y1="139.41801"
       x2="275.60629"
       y2="183.76414"
       id="line99" />
    <line
       style="fill:none;stroke:#000000;stroke-width:0.61591804;stroke-miterlimit:10"
       stroke-miterlimit="10"
       x1="502.88004"
       y1="139.41801"
       x2="519.50983"
       y2="183.76414"
       id="line101" />
    <line
       style="fill:none;stroke:#000000;stroke-width:0.61591804;stroke-miterlimit:10"
       stroke-miterlimit="10"
       x1="502.88004"
       y1="139.41801"
       x2="486.25027"
       y2="183.76414"
       id="line103" />
    <line
       style="fill:none;stroke:#000000;stroke-width:0.61591804;stroke-miterlimit:10"
       stroke-miterlimit="10"
       x1="308.86588"
       y1="50.725811"
       x2="519.50983"
       y2="95.071945"
       id="line105" />
    <line
       style="fill:none;stroke:#000000;stroke-width:0.61591804;stroke-miterlimit:10"
       stroke-miterlimit="10"
       x1="519.50983"
       y1="95.071945"
       x2="552.76941"
       y2="139.41801"
       id="line107" />
    <line
       style="fill:none;stroke:#000000;stroke-width:0.61591804;stroke-miterlimit:10"
       stroke-miterlimit="10"
       x1="519.50983"
       y1="95.071945"
       x2="502.88004"
       y2="139.41801"
       id="line109" />
    <line
       style="fill:none;stroke:#000000;stroke-width:0.61591804;stroke-miterlimit:10"
       stroke-miterlimit="10"
       x1="552.76941"
       y1="139.41801"
       x2="552.76941"
       y2="183.76414"
       id="line111" />
    <circle
       transform="matrix(0.61591806,0,0,0.61591806,-772.07035,-304.04298)"
       style="fill:#ffffff;stroke:#000000;stroke-miterlimit:10"
       sodipodi:ry="18"
       sodipodi:rx="18"
       sodipodi:cy="576"
       sodipodi:cx="1755"
       stroke-miterlimit="10"
       cx="1755"
       cy="576"
       r="18"
       id="circle401" />
    <circle
       transform="matrix(0.61591806,0,0,0.61591806,-772.07035,-304.04298)"
       style="fill:#ffffff;stroke:#000000;stroke-miterlimit:10"
       sodipodi:ry="18"
       sodipodi:rx="18"
       sodipodi:cy="648"
       sodipodi:cx="1413"
       stroke-miterlimit="10"
       cx="1413"
       cy="648"
       r="18"
       id="circle403" />
    <circle
       transform="matrix(0.61591806,0,0,0.61591806,-772.07035,-304.04298)"
       style="fill:#ffffff;stroke:#000000;stroke-miterlimit:10"
       sodipodi:ry="18"
       sodipodi:rx="18"
       sodipodi:cy="720"
       sodipodi:cx="1359"
       stroke-miterlimit="10"
       cx="1359"
       cy="720"
       r="18"
       id="circle405" />
    <circle
       transform="matrix(0.61591806,0,0,0.61591806,-772.07035,-304.04298)"
       style="fill:#ffffff;stroke:#000000;stroke-miterlimit:10"
       sodipodi:ry="18"
       sodipodi:rx="18"
       sodipodi:cy="720"
       sodipodi:cx="1413"
       stroke-miterlimit="10"
       cx="1413"
       cy="720"
       r="18"
       id="circle407" />
    <circle
       transform="matrix(0.61591806,0,0,0.61591806,-772.07035,-304.04298)"
       style="fill:#ffffff;stroke:#000000;stroke-miterlimit:10"
       sodipodi:ry="18"
       sodipodi:rx="18"
       sodipodi:cy="720"
       sodipodi:cx="1467"
       stroke-miterlimit="10"
       cx="1467"
       cy="720"
       r="18"
       id="circle409" />
    <circle
       transform="matrix(0.61591806,0,0,0.61591806,-772.07035,-304.04298)"
       style="fill:#ffffff;stroke:#000000;stroke-miterlimit:10"
       sodipodi:ry="18"
       sodipodi:rx="18"
       sodipodi:cy="792"
       sodipodi:cx="1359"
       stroke-miterlimit="10"
       cx="1359"
       cy="792"
       r="18"
       id="circle411" />
    <circle
       transform="matrix(0.61591806,0,0,0.61591806,-772.07035,-304.04298)"
       style="fill:#ffffff;stroke:#000000;stroke-miterlimit:10"
       sodipodi:ry="18"
       sodipodi:rx="18"
       sodipodi:cy="792"
       sodipodi:cx="1413"
       stroke-miterlimit="10"
       cx="1413"
       cy="792"
       r="18"
       id="circle413" />
    <circle
       transform="matrix(0.61591806,0,0,0.61591806,-772.07035,-304.04298)"
       style="fill:#ffffff;stroke:#000000;stroke-miterlimit:10"
       sodipodi:ry="18"
       sodipodi:rx="18"
       sodipodi:cy="792"
       sodipodi:cx="1755"
       stroke-miterlimit="10"
       cx="1755"
       cy="792"
       r="18"
       id="circle415" />
    <circle
       transform="matrix(0.61591806,0,0,0.61591806,-772.07035,-304.04298)"
       style="fill:#ffffff;stroke:#000000;stroke-miterlimit:10"
       sodipodi:ry="18"
       sodipodi:rx="18"
       sodipodi:cy="792"
       sodipodi:cx="1809"
       stroke-miterlimit="10"
       cx="1809"
       cy="792"
       r="18"
       id="circle417" />
    <circle
       transform="matrix(0.61591806,0,0,0.61591806,-772.07035,-304.04298)"
       style="fill:#ffffff;stroke:#000000;stroke-miterlimit:10"
       sodipodi:ry="18"
       sodipodi:rx="18"
       sodipodi:cy="648"
       sodipodi:cx="1584"
       stroke-miterlimit="10"
       cx="1584"
       cy="648"
       r="18"
       id="circle419" />
    <circle
       transform="matrix(0.61591806,0,0,0.61591806,-772.07035,-304.04298)"
       style="fill:#ffffff;stroke:#000000;stroke-miterlimit:10"
       sodipodi:ry="18"
       sodipodi:rx="18"
       sodipodi:cy="720"
       sodipodi:cx="1530"
       stroke-miterlimit="10"
       cx="1530"
       cy="720"
       r="18"
       id="circle421" />
    <circle
       transform="matrix(0.61591806,0,0,0.61591806,-772.07035,-304.04298)"
       style="fill:#ffffff;stroke:#000000;stroke-miterlimit:10"
       sodipodi:ry="18"
       sodipodi:rx="18"
       sodipodi:cy="720"
       sodipodi:cx="1584"
       stroke-miterlimit="10"
       cx="1584"
       cy="720"
       r="18"
       id="circle423" />
    <circle
       transform="matrix(0.61591806,0,0,0.61591806,-772.07035,-304.04298)"
       style="fill:#ffffff;stroke:#000000;stroke-miterlimit:10"
       sodipodi:ry="18"
       sodipodi:rx="18"
       sodipodi:cy="720"
       sodipodi:cx="1638"
       stroke-miterlimit="10"
       cx="1638"
       cy="720"
       r="18"
       id="circle425" />
    <circle
       transform="matrix(0.61591806,0,0,0.61591806,-772.07035,-304.04298)"
       style="fill:#ffffff;stroke:#000000;stroke-miterlimit:10"
       sodipodi:ry="18"
       sodipodi:rx="18"
       sodipodi:cy="792"
       sodipodi:cx="1530"
       stroke-miterlimit="10"
       cx="1530"
       cy="792"
       r="18"
       id="circle427" />
    <circle
       transform="matrix(0.61591806,0,0,0.61591806,-772.07035,-304.04298)"
       style="fill:#ffffff;stroke:#000000;stroke-miterlimit:10"
       sodipodi:ry="18"
       sodipodi:rx="18"
       sodipodi:cy="792"
       sodipodi:cx="1584"
       stroke-miterlimit="10"
       cx="1584"
       cy="792"
       r="18"
       id="circle429" />
    <circle
       transform="matrix(0.61591806,0,0,0.61591806,-772.07035,-304.04298)"
       style="fill:#ffffff;stroke:#000000;stroke-miterlimit:10"
       sodipodi:ry="18"
       sodipodi:rx="18"
       sodipodi:cy="648"
       sodipodi:cx="1926"
       stroke-miterlimit="10"
       cx="1926"
       cy="648"
       r="18"
       id="circle431" />
    <circle
       transform="matrix(0.61591806,0,0,0.61591806,-772.07035,-304.04298)"
       style="fill:#ffffff;stroke:#000000;stroke-miterlimit:10"
       sodipodi:ry="18"
       sodipodi:rx="18"
       sodipodi:cy="720"
       sodipodi:cx="1872"
       stroke-miterlimit="10"
       cx="1872"
       cy="720"
       r="18"
       id="circle433" />
    <circle
       transform="matrix(0.61591806,0,0,0.61591806,-772.07035,-304.04298)"
       style="fill:#ffffff;stroke:#000000;stroke-miterlimit:10"
       sodipodi:ry="18"
       sodipodi:rx="18"
       sodipodi:cy="720"
       sodipodi:cx="1926"
       stroke-miterlimit="10"
       cx="1926"
       cy="720"
       r="18"
       id="circle435" />
    <circle
       transform="matrix(0.61591806,0,0,0.61591806,-772.07035,-304.04298)"
       style="fill:#ffffff;stroke:#000000;stroke-miterlimit:10"
       sodipodi:ry="18"
       sodipodi:rx="18"
       sodipodi:cy="720"
       sodipodi:cx="1980"
       stroke-miterlimit="10"
       cx="1980"
       cy="720"
       r="18"
       id="circle437" />
    <circle
       transform="matrix(0.61591806,0,0,0.61591806,-772.07035,-304.04298)"
       style="fill:#ffffff;stroke:#000000;stroke-miterlimit:10"
       sodipodi:ry="18"
       sodipodi:rx="18"
       sodipodi:cy="792"
       sodipodi:cx="1872"
       stroke-miterlimit="10"
       cx="1872"
       cy="792"
       r="18"
       id="circle439" />
    <circle
       stroke-miterlimit="10"
       cx="1980"
       cy="792"
       r="18"
       id="circle441"
       sodipodi:cx="1980"
       sodipodi:cy="792"
       sodipodi:rx="18"
       sodipodi:ry="18"
       transform="matrix(0.61591806,0,0,0.61591806,-805.32993,-304.04298)"
       style="fill:#ffffff;stroke:#000000;stroke-miterlimit:10" />
    <circle
       transform="matrix(0.61591806,0,0,0.61591806,-772.07035,-304.04298)"
       style="fill:#ffffff;stroke:#000000;stroke-miterlimit:10"
       sodipodi:ry="18"
       sodipodi:rx="18"
       sodipodi:cy="648"
       sodipodi:cx="1755"
       stroke-miterlimit="10"
       cx="1755"
       cy="648"
       r="18"
       id="circle443" />
    <circle
       transform="matrix(0.61591806,0,0,0.61591806,-772.07035,-304.04298)"
       style="fill:#ffffff;stroke:#000000;stroke-miterlimit:10"
       sodipodi:ry="18"
       sodipodi:rx="18"
       sodipodi:cy="720"
       sodipodi:cx="1701"
       stroke-miterlimit="10"
       cx="1701"
       cy="720"
       r="18"
       id="circle445" />
    <circle
       transform="matrix(0.61591806,0,0,0.61591806,-772.07035,-304.04298)"
       style="fill:#ffffff;stroke:#000000;stroke-miterlimit:10"
       sodipodi:ry="18"
       sodipodi:rx="18"
       sodipodi:cy="720"
       sodipodi:cx="1782"
       stroke-miterlimit="10"
       cx="1782"
       cy="720"
       r="18"
       id="circle447" />
    <circle
       transform="matrix(0.61591806,0,0,0.61591806,-772.07035,-304.04298)"
       style="fill:#ffffff;stroke:#000000;stroke-miterlimit:10"
       sodipodi:ry="18"
       sodipodi:rx="18"
       sodipodi:cy="792"
       sodipodi:cx="1701"
       stroke-miterlimit="10"
       cx="1701"
       cy="792"
       r="18"
       id="circle449" />
    <circle
       transform="matrix(0.61591806,0,0,0.61591806,-772.07035,-304.04298)"
       style="fill:#ffffff;stroke:#000000;stroke-miterlimit:10"
       sodipodi:ry="18"
       sodipodi:rx="18"
       sodipodi:cy="792"
       sodipodi:cx="2097"
       stroke-miterlimit="10"
       cx="2097"
       cy="792"
       r="18"
       id="circle451" />
    <circle
       transform="matrix(0.61591806,0,0,0.61591806,-772.07035,-304.04298)"
       style="fill:#ffffff;stroke:#000000;stroke-miterlimit:10"
       sodipodi:ry="18"
       sodipodi:rx="18"
       sodipodi:cy="792"
       sodipodi:cx="2043"
       stroke-miterlimit="10"
       cx="2043"
       cy="792"
       r="18"
       id="circle453" />
    <circle
       transform="matrix(0.61591806,0,0,0.61591806,-772.07035,-304.04298)"
       style="fill:#ffffff;stroke:#000000;stroke-miterlimit:10"
       sodipodi:ry="18"
       sodipodi:rx="18"
       sodipodi:cy="648"
       sodipodi:cx="2097"
       stroke-miterlimit="10"
       cx="2097"
       cy="648"
       r="18"
       id="circle455" />
    <circle
       transform="matrix(0.61591806,0,0,0.61591806,-772.07035,-304.04298)"
       style="fill:#ffffff;stroke:#000000;stroke-miterlimit:10"
       sodipodi:ry="18"
       sodipodi:rx="18"
       sodipodi:cy="720"
       sodipodi:cx="2151"
       stroke-miterlimit="10"
       cx="2151"
       cy="720"
       r="18"
       id="circle457" />
    <circle
       transform="matrix(0.61591806,0,0,0.61591806,-772.07035,-304.04298)"
       style="fill:#ffffff;stroke:#000000;stroke-miterlimit:10"
       sodipodi:ry="18"
       sodipodi:rx="18"
       sodipodi:cy="720"
       sodipodi:cx="2070"
       stroke-miterlimit="10"
       cx="2070"
       cy="720"
       r="18"
       id="circle459" />
    <circle
       transform="matrix(0.61591806,0,0,0.61591806,-772.07035,-304.04298)"
       style="fill:#ffffff;stroke:#000000;stroke-miterlimit:10"
       sodipodi:ry="18"
       sodipodi:rx="18"
       sodipodi:cy="792"
       sodipodi:cx="2151"
       stroke-miterlimit="10"
       cx="2151"
       cy="792"
       r="18"
       id="circle461" />
    <path
       style="fill:none;stroke:#000000;stroke-width:0.61591804;stroke-miterlimit:10"
       inkscape:connector-curvature="0"
       stroke-miterlimit="10"
       d="M 308.86587,50.725831"
       id="path463" />
    <path
       style="fill:none;stroke:#000000;stroke-width:0.61591804;stroke-miterlimit:10"
       inkscape:connector-curvature="0"
       stroke-miterlimit="10"
       d="M 308.86587,50.725831"
       id="path465" />
  </g>
</svg>
